<mxfile host="app.diagrams.net" agent="Mozilla/5.0 (Macintosh; Intel Mac OS X 10_15_7) AppleWebKit/605.1.15 (KHTML, like Gecko) Version/18.1 Safari/605.1.15" version="24.8.4">
  <diagram name="Page-1" id="6IyTYUzncKEAiaKfEHQ4">
    <mxGraphModel dx="1026" dy="692" grid="1" gridSize="10" guides="1" tooltips="1" connect="1" arrows="1" fold="1" page="1" pageScale="1" pageWidth="827" pageHeight="1169" math="0" shadow="0">
      <root>
        <mxCell id="0" />
        <mxCell id="1" parent="0" />
        <mxCell id="hNU-DkRJmX0IVGSSHYW9-12" value="" style="rounded=1;whiteSpace=wrap;html=1;" parent="1" vertex="1">
          <mxGeometry x="287.5" y="160" width="95" height="156" as="geometry" />
        </mxCell>
        <mxCell id="hNU-DkRJmX0IVGSSHYW9-1" value="" style="rounded=1;whiteSpace=wrap;html=1;" parent="1" vertex="1">
          <mxGeometry x="110" y="90" width="840" height="470" as="geometry" />
        </mxCell>
        <mxCell id="hNU-DkRJmX0IVGSSHYW9-2" value="K8s clutster" style="aspect=fixed;sketch=0;html=1;dashed=0;whitespace=wrap;verticalLabelPosition=bottom;verticalAlign=top;fillColor=#2875E2;strokeColor=#ffffff;points=[[0.005,0.63,0],[0.1,0.2,0],[0.9,0.2,0],[0.5,0,0],[0.995,0.63,0],[0.72,0.99,0],[0.5,1,0],[0.28,0.99,0]];shape=mxgraph.kubernetes.icon2;prIcon=control_plane" parent="1" vertex="1">
          <mxGeometry x="140.42000000000002" y="470" width="52.08" height="50" as="geometry" />
        </mxCell>
        <mxCell id="hNU-DkRJmX0IVGSSHYW9-4" value="Namespace" style="aspect=fixed;sketch=0;html=1;dashed=0;whitespace=wrap;verticalLabelPosition=bottom;verticalAlign=top;fillColor=#2875E2;strokeColor=#ffffff;points=[[0.005,0.63,0],[0.1,0.2,0],[0.9,0.2,0],[0.5,0,0],[0.995,0.63,0],[0.72,0.99,0],[0.5,1,0],[0.28,0.99,0]];shape=mxgraph.kubernetes.icon2;prIcon=ns" parent="1" vertex="1">
          <mxGeometry x="230" y="400" width="50" height="48" as="geometry" />
        </mxCell>
        <mxCell id="hNU-DkRJmX0IVGSSHYW9-3" value="" style="rounded=1;whiteSpace=wrap;html=1;" parent="1" vertex="1">
          <mxGeometry x="192.5" y="125" width="537.5" height="370" as="geometry" />
        </mxCell>
        <mxCell id="hNU-DkRJmX0IVGSSHYW9-13" value="Node 1" style="rounded=1;whiteSpace=wrap;html=1;labelPosition=center;verticalLabelPosition=top;align=center;verticalAlign=bottom;" parent="1" vertex="1">
          <mxGeometry x="291.88" y="180" width="86.25" height="130" as="geometry" />
        </mxCell>
        <mxCell id="hNU-DkRJmX0IVGSSHYW9-21" style="edgeStyle=orthogonalEdgeStyle;rounded=0;orthogonalLoop=1;jettySize=auto;html=1;entryX=0.5;entryY=1;entryDx=0;entryDy=0;curved=1;" parent="1" source="hNU-DkRJmX0IVGSSHYW9-8" target="hNU-DkRJmX0IVGSSHYW9-17" edge="1">
          <mxGeometry relative="1" as="geometry" />
        </mxCell>
        <mxCell id="hNU-DkRJmX0IVGSSHYW9-8" value="Service ClusterIP&lt;div&gt;label : django-api-svc&lt;/div&gt;" style="aspect=fixed;sketch=0;html=1;dashed=0;whitespace=wrap;verticalLabelPosition=bottom;verticalAlign=top;fillColor=#2875E2;strokeColor=#ffffff;points=[[0.005,0.63,0],[0.1,0.2,0],[0.9,0.2,0],[0.5,0,0],[0.995,0.63,0],[0.72,0.99,0],[0.5,1,0],[0.28,0.99,0]];shape=mxgraph.kubernetes.icon2;kubernetesLabel=1;prIcon=svc" parent="1" vertex="1">
          <mxGeometry x="465" y="390" width="50" height="48" as="geometry" />
        </mxCell>
        <mxCell id="hNU-DkRJmX0IVGSSHYW9-9" value="Pod 1&lt;div&gt;label : web&lt;/div&gt;" style="aspect=fixed;sketch=0;html=1;dashed=0;whitespace=wrap;verticalLabelPosition=bottom;verticalAlign=top;fillColor=#2875E2;strokeColor=#ffffff;points=[[0.005,0.63,0],[0.1,0.2,0],[0.9,0.2,0],[0.5,0,0],[0.995,0.63,0],[0.72,0.99,0],[0.5,1,0],[0.28,0.99,0]];shape=mxgraph.kubernetes.icon2;prIcon=pod" parent="1" vertex="1">
          <mxGeometry x="310.01" y="205" width="50" height="48" as="geometry" />
        </mxCell>
        <mxCell id="hNU-DkRJmX0IVGSSHYW9-17" value="deployment" style="rounded=1;whiteSpace=wrap;html=1;labelPosition=center;verticalLabelPosition=top;align=center;verticalAlign=bottom;" parent="1" vertex="1">
          <mxGeometry x="430" y="163" width="120" height="150" as="geometry" />
        </mxCell>
        <mxCell id="hNU-DkRJmX0IVGSSHYW9-22" value="&lt;i&gt;NodePort&lt;/i&gt;" style="text;strokeColor=none;align=center;fillColor=none;html=1;verticalAlign=middle;whiteSpace=wrap;rounded=0;" parent="1" vertex="1">
          <mxGeometry x="350" y="310" width="60" height="30" as="geometry" />
        </mxCell>
        <mxCell id="hNU-DkRJmX0IVGSSHYW9-24" value="&lt;i&gt;NodePort&lt;/i&gt;" style="text;strokeColor=none;align=center;fillColor=none;html=1;verticalAlign=middle;whiteSpace=wrap;rounded=0;" parent="1" vertex="1">
          <mxGeometry x="490" y="310" width="60" height="30" as="geometry" />
        </mxCell>
        <mxCell id="hNU-DkRJmX0IVGSSHYW9-25" value="namespace" style="aspect=fixed;sketch=0;html=1;dashed=0;whitespace=wrap;verticalLabelPosition=bottom;verticalAlign=top;fillColor=#2875E2;strokeColor=#ffffff;points=[[0.005,0.63,0],[0.1,0.2,0],[0.9,0.2,0],[0.5,0,0],[0.995,0.63,0],[0.72,0.99,0],[0.5,1,0],[0.28,0.99,0]];shape=mxgraph.kubernetes.icon2;kubernetesLabel=1;prIcon=ns" parent="1" vertex="1">
          <mxGeometry x="220" y="410" width="50" height="48" as="geometry" />
        </mxCell>
        <mxCell id="BfhuEZ7SeOQfhyiTkq6h-1" value="" style="rounded=1;whiteSpace=wrap;html=1;" parent="1" vertex="1">
          <mxGeometry x="743.5" y="295" width="103" height="125" as="geometry" />
        </mxCell>
        <mxCell id="BfhuEZ7SeOQfhyiTkq6h-2" value="" style="aspect=fixed;sketch=0;html=1;dashed=0;whitespace=wrap;verticalLabelPosition=bottom;verticalAlign=top;fillColor=#2875E2;strokeColor=#ffffff;points=[[0.005,0.63,0],[0.1,0.2,0],[0.9,0.2,0],[0.5,0,0],[0.995,0.63,0],[0.72,0.99,0],[0.5,1,0],[0.28,0.99,0]];shape=mxgraph.kubernetes.icon2;kubernetesLabel=1;prIcon=k_proxy" parent="1" vertex="1">
          <mxGeometry x="770" y="333.5" width="50" height="48" as="geometry" />
        </mxCell>
        <mxCell id="BfhuEZ7SeOQfhyiTkq6h-4" value="" style="verticalLabelPosition=bottom;html=1;verticalAlign=top;align=center;strokeColor=none;fillColor=#00BEF2;shape=mxgraph.azure.laptop;pointerEvents=1;" parent="1" vertex="1">
          <mxGeometry x="1010" y="420" width="83.33" height="50" as="geometry" />
        </mxCell>
        <mxCell id="BfhuEZ7SeOQfhyiTkq6h-5" style="edgeStyle=orthogonalEdgeStyle;rounded=0;orthogonalLoop=1;jettySize=auto;html=1;entryX=0.5;entryY=1;entryDx=0;entryDy=0;entryPerimeter=0;curved=1;endArrow=classic;endFill=1;startArrow=classic;startFill=1;" parent="1" source="BfhuEZ7SeOQfhyiTkq6h-2" target="BfhuEZ7SeOQfhyiTkq6h-4" edge="1">
          <mxGeometry relative="1" as="geometry" />
        </mxCell>
        <mxCell id="k5hOlW_aIChU6zTlsLXK-2" value="" style="rounded=1;whiteSpace=wrap;html=1;labelPosition=center;verticalLabelPosition=top;align=center;verticalAlign=bottom;" parent="1" vertex="1">
          <mxGeometry x="450" y="183" width="70" height="116" as="geometry" />
        </mxCell>
        <mxCell id="hNU-DkRJmX0IVGSSHYW9-10" value="&lt;div style=&quot;&quot;&gt;Pod x3&lt;/div&gt;&lt;div style=&quot;&quot;&gt;label :&amp;nbsp;&lt;/div&gt;&lt;div style=&quot;&quot;&gt;django-api&lt;/div&gt;" style="aspect=fixed;sketch=0;html=1;dashed=0;whitespace=wrap;verticalLabelPosition=bottom;verticalAlign=top;fillColor=#2875E2;strokeColor=#ffffff;points=[[0.005,0.63,0],[0.1,0.2,0],[0.9,0.2,0],[0.5,0,0],[0.995,0.63,0],[0.72,0.99,0],[0.5,1,0],[0.28,0.99,0]];shape=mxgraph.kubernetes.icon2;prIcon=pod;align=center;" parent="1" vertex="1">
          <mxGeometry x="460" y="188" width="50" height="48" as="geometry" />
        </mxCell>
        <mxCell id="k5hOlW_aIChU6zTlsLXK-8" value="deployment" style="rounded=1;whiteSpace=wrap;html=1;labelPosition=center;verticalLabelPosition=top;align=center;verticalAlign=bottom;" parent="1" vertex="1">
          <mxGeometry x="290" y="163" width="120" height="150" as="geometry" />
        </mxCell>
        <mxCell id="k5hOlW_aIChU6zTlsLXK-9" value="" style="rounded=1;whiteSpace=wrap;html=1;labelPosition=center;verticalLabelPosition=top;align=center;verticalAlign=bottom;" parent="1" vertex="1">
          <mxGeometry x="310" y="183" width="70" height="116" as="geometry" />
        </mxCell>
        <mxCell id="k5hOlW_aIChU6zTlsLXK-10" value="Pod x3&lt;div&gt;label :&amp;nbsp;&lt;/div&gt;&lt;div&gt;django-front&lt;br&gt;&lt;/div&gt;" style="aspect=fixed;sketch=0;html=1;dashed=0;whitespace=wrap;verticalLabelPosition=bottom;verticalAlign=top;fillColor=#2875E2;strokeColor=#ffffff;points=[[0.005,0.63,0],[0.1,0.2,0],[0.9,0.2,0],[0.5,0,0],[0.995,0.63,0],[0.72,0.99,0],[0.5,1,0],[0.28,0.99,0]];shape=mxgraph.kubernetes.icon2;prIcon=pod" parent="1" vertex="1">
          <mxGeometry x="320" y="188" width="50" height="48" as="geometry" />
        </mxCell>
        <mxCell id="k5hOlW_aIChU6zTlsLXK-13" value="Service ClusterIP&lt;div&gt;label : django-front-svc&lt;/div&gt;" style="aspect=fixed;sketch=0;html=1;dashed=0;whitespace=wrap;verticalLabelPosition=bottom;verticalAlign=top;fillColor=#2875E2;strokeColor=#ffffff;points=[[0.005,0.63,0],[0.1,0.2,0],[0.9,0.2,0],[0.5,0,0],[0.995,0.63,0],[0.72,0.99,0],[0.5,1,0],[0.28,0.99,0]];shape=mxgraph.kubernetes.icon2;kubernetesLabel=1;prIcon=svc" parent="1" vertex="1">
          <mxGeometry x="325" y="390" width="50" height="48" as="geometry" />
        </mxCell>
        <mxCell id="k5hOlW_aIChU6zTlsLXK-14" style="edgeStyle=orthogonalEdgeStyle;rounded=0;orthogonalLoop=1;jettySize=auto;html=1;entryX=0.5;entryY=1;entryDx=0;entryDy=0;curved=1;exitX=0.5;exitY=0;exitDx=0;exitDy=0;exitPerimeter=0;" parent="1" source="k5hOlW_aIChU6zTlsLXK-13" edge="1">
          <mxGeometry relative="1" as="geometry">
            <mxPoint x="349.72" y="382" as="sourcePoint" />
            <mxPoint x="349.72" y="313" as="targetPoint" />
          </mxGeometry>
        </mxCell>
        <mxCell id="k5hOlW_aIChU6zTlsLXK-15" style="edgeStyle=orthogonalEdgeStyle;rounded=0;orthogonalLoop=1;jettySize=auto;html=1;curved=1;startArrow=classic;startFill=1;exitX=0.088;exitY=0.868;exitDx=0;exitDy=0;exitPerimeter=0;entryX=0.995;entryY=0.63;entryDx=0;entryDy=0;entryPerimeter=0;" parent="1" target="k5hOlW_aIChU6zTlsLXK-13" edge="1">
          <mxGeometry relative="1" as="geometry">
            <mxPoint x="794.3999999999999" y="386.584" as="sourcePoint" />
            <mxPoint x="370" y="440.92000000000013" as="targetPoint" />
            <Array as="points">
              <mxPoint x="794" y="510" />
              <mxPoint x="420" y="510" />
              <mxPoint x="420" y="420" />
            </Array>
          </mxGeometry>
        </mxCell>
        <mxCell id="k5hOlW_aIChU6zTlsLXK-16" value="&lt;span style=&quot;text-wrap-mode: nowrap;&quot;&gt;ingress&lt;/span&gt;" style="text;strokeColor=none;align=center;fillColor=none;html=1;verticalAlign=middle;whiteSpace=wrap;rounded=0;" parent="1" vertex="1">
          <mxGeometry x="765" y="310" width="60" height="30" as="geometry" />
        </mxCell>
        <mxCell id="k5hOlW_aIChU6zTlsLXK-20" value="" style="rounded=1;whiteSpace=wrap;html=1;" parent="1" vertex="1">
          <mxGeometry x="890" y="395" width="103" height="125" as="geometry" />
        </mxCell>
        <mxCell id="k5hOlW_aIChU6zTlsLXK-21" value="" style="aspect=fixed;sketch=0;html=1;dashed=0;whitespace=wrap;verticalLabelPosition=bottom;verticalAlign=top;fillColor=#2875E2;strokeColor=#ffffff;points=[[0.005,0.63,0],[0.1,0.2,0],[0.9,0.2,0],[0.5,0,0],[0.995,0.63,0],[0.72,0.99,0],[0.5,1,0],[0.28,0.99,0]];shape=mxgraph.kubernetes.icon2;kubernetesLabel=1;prIcon=k_proxy" parent="1" vertex="1">
          <mxGeometry x="916.5" y="433.5" width="50" height="48" as="geometry" />
        </mxCell>
        <mxCell id="k5hOlW_aIChU6zTlsLXK-22" value="&lt;span style=&quot;text-wrap-mode: nowrap;&quot;&gt;ingress controller&lt;/span&gt;" style="text;strokeColor=none;align=center;fillColor=none;html=1;verticalAlign=middle;whiteSpace=wrap;rounded=0;" parent="1" vertex="1">
          <mxGeometry x="911.5" y="410" width="58.5" height="20" as="geometry" />
        </mxCell>
        <mxCell id="rzCSknB7us3n5tj4xeA1-1" value="deployment" style="rounded=1;whiteSpace=wrap;html=1;labelPosition=center;verticalLabelPosition=top;align=center;verticalAlign=bottom;" vertex="1" parent="1">
          <mxGeometry x="570" y="163" width="120" height="150" as="geometry" />
        </mxCell>
        <mxCell id="rzCSknB7us3n5tj4xeA1-2" value="" style="rounded=1;whiteSpace=wrap;html=1;labelPosition=center;verticalLabelPosition=top;align=center;verticalAlign=bottom;" vertex="1" parent="1">
          <mxGeometry x="595" y="183" width="70" height="116" as="geometry" />
        </mxCell>
        <mxCell id="rzCSknB7us3n5tj4xeA1-6" style="edgeStyle=orthogonalEdgeStyle;rounded=0;orthogonalLoop=1;jettySize=auto;html=1;entryX=0.5;entryY=1;entryDx=0;entryDy=0;" edge="1" parent="1" source="rzCSknB7us3n5tj4xeA1-4" target="rzCSknB7us3n5tj4xeA1-1">
          <mxGeometry relative="1" as="geometry" />
        </mxCell>
        <mxCell id="rzCSknB7us3n5tj4xeA1-3" value="Pod x1&lt;div&gt;label :&amp;nbsp;&lt;/div&gt;&lt;div&gt;PostgresSQL&lt;br&gt;&lt;/div&gt;" style="aspect=fixed;sketch=0;html=1;dashed=0;whitespace=wrap;verticalLabelPosition=bottom;verticalAlign=top;fillColor=#2875E2;strokeColor=#ffffff;points=[[0.005,0.63,0],[0.1,0.2,0],[0.9,0.2,0],[0.5,0,0],[0.995,0.63,0],[0.72,0.99,0],[0.5,1,0],[0.28,0.99,0]];shape=mxgraph.kubernetes.icon2;prIcon=pod" vertex="1" parent="1">
          <mxGeometry x="605" y="188" width="50" height="48" as="geometry" />
        </mxCell>
        <mxCell id="rzCSknB7us3n5tj4xeA1-4" value="Service ClusterIP&lt;div&gt;label : postgres-svc&lt;/div&gt;" style="aspect=fixed;sketch=0;html=1;dashed=0;whitespace=wrap;verticalLabelPosition=bottom;verticalAlign=top;fillColor=#2875E2;strokeColor=#ffffff;points=[[0.005,0.63,0],[0.1,0.2,0],[0.9,0.2,0],[0.5,0,0],[0.995,0.63,0],[0.72,0.99,0],[0.5,1,0],[0.28,0.99,0]];shape=mxgraph.kubernetes.icon2;kubernetesLabel=1;prIcon=svc" vertex="1" parent="1">
          <mxGeometry x="605" y="390" width="50" height="48" as="geometry" />
        </mxCell>
        <mxCell id="BfhuEZ7SeOQfhyiTkq6h-9" value="Pod network" style="rounded=1;whiteSpace=wrap;html=1;" parent="1" vertex="1">
          <mxGeometry x="280" y="340" width="410" height="35" as="geometry" />
        </mxCell>
      </root>
    </mxGraphModel>
  </diagram>
</mxfile>
